<svg width="46" height="46" viewBox="0 0 46 46" fill="none" xmlns="http://www.w3.org/2000/svg">
<path d="M29.2951 25.5466C23.3729 30.3893 19.5926 37.7532 19.5926 46L26.4074 46C26.4074 35.1793 35.1793 26.4074 46 26.4074C40.3588 26.4074 34.7858 26.1157 29.2951 25.5466Z" fill="url(#paint0_linear_1481_3144)"/>
<path d="M20.4534 29.2951C15.6107 23.3729 8.24682 19.5926 0 19.5926V26.4074C10.8207 26.4074 19.5926 35.1793 19.5926 46C19.5926 40.3588 19.8843 34.7858 20.4534 29.2951Z" fill="url(#paint1_linear_1481_3144)"/>
<path d="M0 19.5926C10.8207 19.5926 19.5926 10.8207 19.5926 0H26.4074C26.4074 8.24682 22.6271 15.6107 16.7049 20.4534C11.2142 19.8843 5.64118 19.5926 0 19.5926Z" fill="url(#paint2_linear_1481_3144)"/>
<path d="M26.4074 0C26.4067 5.63375 26.115 11.1995 25.5466 16.6832C30.3893 22.6054 37.7532 26.3856 46 26.3856V19.5708C35.1865 19.5708 26.4192 10.8107 26.4074 0Z" fill="url(#paint3_linear_1481_3144)"/>
<defs>
<linearGradient id="paint0_linear_1481_3144" x1="23" y1="-1.01549e-07" x2="23" y2="46" gradientUnits="userSpaceOnUse">
<stop stop-color="#CA4ED0"/>
<stop offset="1" stop-color="#4A40E6"/>
</linearGradient>
<linearGradient id="paint1_linear_1481_3144" x1="23" y1="-1.01549e-07" x2="23" y2="46" gradientUnits="userSpaceOnUse">
<stop stop-color="#CA4ED0"/>
<stop offset="1" stop-color="#4A40E6"/>
</linearGradient>
<linearGradient id="paint2_linear_1481_3144" x1="23" y1="-1.01549e-07" x2="23" y2="46" gradientUnits="userSpaceOnUse">
<stop stop-color="#CA4ED0"/>
<stop offset="1" stop-color="#4A40E6"/>
</linearGradient>
<linearGradient id="paint3_linear_1481_3144" x1="23" y1="-1.01549e-07" x2="23" y2="46" gradientUnits="userSpaceOnUse">
<stop stop-color="#CA4ED0"/>
<stop offset="1" stop-color="#4A40E6"/>
</linearGradient>
</defs>
</svg>
