<svg xmlns="http://www.w3.org/2000/svg" width="300" height="20" viewBox="0 0 300 20" fill="none">
<path d="M62.9377 19.9413C61.0468 19.9413 59.5225 19.5497 58.3647 18.7665C57.2263 17.9638 56.4931 16.9163 56.1651 15.6241C55.8564 14.3123 55.9818 12.9026 56.5413 11.395L61.4906 11.1894C60.8924 12.8145 60.7767 14.0284 61.1433 14.8311C61.5099 15.6143 62.2238 16.0059 63.285 16.0059C64.1726 16.0059 64.8287 15.6926 65.2532 15.0661C65.697 14.4396 66.0829 13.3921 66.4109 11.9236L69.0447 0.293685H74.0229L71.1865 12.8047C70.8584 14.2144 70.3761 15.4577 69.7393 16.5345C69.1219 17.6114 68.2632 18.4533 67.1634 19.0602C66.0636 19.6476 64.655 19.9413 62.9377 19.9413Z" fill="white"/>
<path d="M82.514 19.9706C80.6038 19.9706 79.0119 19.6182 77.7384 18.9134C76.4649 18.1889 75.5773 17.1708 75.0757 15.859C74.574 14.5277 74.5354 12.932 74.9599 11.072L77.449 0.293685H82.4272L79.8512 11.7768C79.5425 13.1473 79.6872 14.1948 80.2854 14.9192C80.8835 15.6437 81.7711 16.0059 82.9481 16.0059C84.0094 16.0059 84.8294 15.6828 85.4083 15.0367C86.0064 14.3906 86.4502 13.441 86.7397 12.188L89.4603 0.293685H94.4095L91.66 12.3348C91.0811 14.8605 90.0585 16.7695 88.592 18.0617C87.1256 19.3343 85.0996 19.9706 82.514 19.9706Z" fill="white"/>
<path d="M102.923 20C100.897 20 99.0543 19.5986 97.395 18.7959C95.7549 17.9931 94.4331 16.789 93.4298 15.1836L96.353 12.2761C96.8161 13.0984 97.395 13.8032 98.0896 14.3906C98.8035 14.9584 99.5753 15.3891 100.405 15.6828C101.235 15.9569 102.064 16.094 102.894 16.094C103.782 16.094 104.438 15.908 104.862 15.536C105.287 15.1444 105.499 14.6941 105.499 14.185C105.499 13.7739 105.345 13.441 105.036 13.1865C104.727 12.932 104.264 12.7068 103.647 12.511L100.781 11.5712C99.4885 11.1405 98.3887 10.4944 97.4818 9.63289C96.5942 8.75183 96.1504 7.60646 96.1504 6.19677C96.1504 4.88497 96.4784 3.76897 97.1345 2.84875C97.8098 1.92854 98.7263 1.22369 99.884 0.734213C101.061 0.244737 102.402 0 103.907 0C105.895 0 107.573 0.362212 108.943 1.08664C110.313 1.79148 111.442 2.79001 112.33 4.08223L109.29 6.90162C108.692 5.86393 107.901 5.11013 106.917 4.64024C105.952 4.15076 104.949 3.90602 103.907 3.90602C103.02 3.90602 102.363 4.08223 101.939 4.43465C101.534 4.7675 101.331 5.18845 101.331 5.6975C101.331 6.08908 101.514 6.4513 101.881 6.78414C102.267 7.0974 102.769 7.35193 103.386 7.54772L106.251 8.48752C107.699 8.95742 108.798 9.60352 109.551 10.4258C110.303 11.2482 110.68 12.3054 110.68 13.5977C110.68 14.929 110.332 16.0744 109.638 17.0338C108.962 17.9932 108.036 18.7274 106.859 19.2364C105.682 19.7455 104.37 20 102.923 20Z" fill="white"/>
<path d="M131.676 0.293685L130.779 4.19971H124.614L121.083 19.6769H116.105L119.636 4.19971H113.413L114.311 0.293685H131.676Z" fill="white"/>
<path d="M135.137 19.6769L146.193 0.293685H152.213L154.355 19.6769H149.637L149.29 15.1248H142.749L140.317 19.6769H135.137ZM146.916 7.37151L144.601 11.6887H149.029L148.682 7.43025L148.508 4.17034H148.45L146.916 7.37151Z" fill="white"/>
<path d="M174.583 4.19971H165.061L164.105 8.31131H171.92L171.023 12.2173H163.237L161.53 19.6769H156.551L160.98 0.293685H175.48L174.583 4.19971Z" fill="white"/>
<path d="M191.909 4.19971H182.387L181.432 8.31131H189.246L188.349 12.2173H180.563L178.856 19.6769H173.878L178.306 0.293685H192.806L191.909 4.19971Z" fill="white"/>
<path d="M200.61 0.293685L196.182 19.6769H191.204L195.632 0.293685H200.61Z" fill="white"/>
<path d="M206.237 15.7709H215.875L214.978 19.6769H200.361L204.79 0.293685H209.768L206.237 15.7709Z" fill="white"/>
<path d="M227.207 0.293685L222.779 19.6769H217.801L222.229 0.293685H227.207Z" fill="white"/>
<path d="M224.961 19.6769L236.018 0.293685H242.038L244.179 19.6769H239.462L239.114 15.1248H232.573L230.142 19.6769H224.961ZM236.741 7.37151L234.426 11.6887H238.854L238.507 7.43025L238.333 4.17034H238.275L236.741 7.37151Z" fill="white"/>
<path d="M264.096 0.293685L263.199 4.19971H257.034L253.503 19.6769H248.525L252.056 4.19971H245.833L246.73 0.293685H264.096Z" fill="white"/>
<path d="M262.459 19.6769L266.887 0.293685H281.764L280.837 4.19971H270.968L270.071 8.1351H277.856L277.017 11.8062H269.231L268.334 15.7709H278.522L277.625 19.6769H262.459Z" fill="white"/>
<path d="M289.752 20C287.726 20 285.883 19.5986 284.224 18.7959C282.584 17.9931 281.262 16.789 280.259 15.1836L283.182 12.2761C283.645 13.0984 284.224 13.8032 284.918 14.3906C285.632 14.9584 286.404 15.3891 287.234 15.6828C288.064 15.9569 288.893 16.094 289.723 16.094C290.611 16.094 291.267 15.908 291.691 15.536C292.116 15.1444 292.328 14.6941 292.328 14.185C292.328 13.7739 292.173 13.441 291.865 13.1865C291.556 12.932 291.093 12.7068 290.475 12.511L287.61 11.5712C286.317 11.1405 285.217 10.4944 284.311 9.63289C283.423 8.75183 282.979 7.60646 282.979 6.19677C282.979 4.88497 283.307 3.76897 283.963 2.84875C284.639 1.92854 285.555 1.22369 286.713 0.734213C287.89 0.244737 289.231 0 290.736 0C292.723 0 294.402 0.362212 295.772 1.08664C297.142 1.79148 298.271 2.79001 299.158 4.08223L296.119 6.90162C295.521 5.86393 294.73 5.11013 293.746 4.64024C292.781 4.15076 291.778 3.90602 290.736 3.90602C289.848 3.90602 289.192 4.08223 288.768 4.43465C288.363 4.7675 288.16 5.18845 288.16 5.6975C288.16 6.08908 288.343 6.4513 288.71 6.78414C289.096 7.0974 289.598 7.35193 290.215 7.54772L293.08 8.48752C294.527 8.95742 295.627 9.60352 296.38 10.4258C297.132 11.2482 297.509 12.3054 297.509 13.5977C297.509 14.929 297.161 16.0744 296.467 17.0338C295.791 17.9932 294.865 18.7274 293.688 19.2364C292.511 19.7455 291.199 20 289.752 20Z" fill="white"/>
<path d="M48 10L38 20H8L18 10H48Z" fill="#1686F9"/>
<path d="M44 6L34 16H4L14 6H44Z" fill="#FFB800"/>
<path d="M40 0L30 10H0L10 0H40Z" fill="#F65118"/>
</svg>